<svg width="100%" height="100%" viewBox="0 0 32 32" fill="none" xmlns="http://www.w3.org/2000/svg">
<path d="M0 4.31461C0 1.93172 1.84863 0 4.12903 0H27.871C30.1514 0 32 1.93172 32 4.31461V27.6854C32 30.0683 30.1514 32 27.871 32H4.12903C1.84863 32 0 30.0683 0 27.6854V4.31461Z" fill="black"/>
<path fill-rule="evenodd" clip-rule="evenodd" d="M8.88916 10.7063C8.88916 9.29668 10.0006 8.17773 11.4114 8.17773H21.1706V11.135H21.3352C22.4859 11.135 23.3807 12.0365 23.3807 13.1852V20.6652C23.3807 22.0749 22.2693 23.1938 20.8585 23.1938H11.4114C10.0006 23.1938 8.88916 22.0749 8.88916 20.6652V10.7063ZM10.38 13.7071C10.38 14.2979 10.8287 14.7445 11.4114 14.7445H15.3895V11.135H19.6797V9.66889H11.4114C10.8287 9.66889 10.38 10.1155 10.38 10.7063V13.7071ZM16.8804 14.7445H21.3352C21.6579 14.7445 21.8898 14.5153 21.8898 14.1854V13.1852C21.8898 12.8553 21.6579 12.6261 21.3352 12.6261H16.8804V14.7445ZM21.8898 16.1626C21.7142 16.2103 21.5283 16.2357 21.3352 16.2357H11.4114C11.0422 16.2357 10.6936 16.1591 10.38 16.0207V20.6652C10.38 21.256 10.8287 21.7027 11.4114 21.7027H20.8585C21.4412 21.7027 21.8898 21.256 21.8898 20.6652V16.1626Z" fill="white"/>
</svg>
